<?xml version="1.0" encoding="utf-8" standalone="no"?>
<!DOCTYPE svg PUBLIC "-//W3C//DTD SVG 1.1//EN"
  "http://www.w3.org/Graphics/SVG/1.1/DTD/svg11.dtd">
<svg xmlns:xlink="http://www.w3.org/1999/xlink" width="416.836562pt" height="416.970625pt" viewBox="0 0 416.836562 416.970625" xmlns="http://www.w3.org/2000/svg" version="1.1">
 <metadata>
  <rdf:RDF xmlns:dc="http://purl.org/dc/elements/1.1/" xmlns:cc="http://creativecommons.org/ns#" xmlns:rdf="http://www.w3.org/1999/02/22-rdf-syntax-ns#">
   <cc:Work>
    <dc:type rdf:resource="http://purl.org/dc/dcmitype/StillImage"/>
    <dc:date>2025-08-31T15:55:23.410039</dc:date>
    <dc:format>image/svg+xml</dc:format>
    <dc:creator>
     <cc:Agent>
      <dc:title>Matplotlib v3.10.1, https://matplotlib.org/</dc:title>
     </cc:Agent>
    </dc:creator>
   </cc:Work>
  </rdf:RDF>
 </metadata>
 <defs>
  <style type="text/css">*{stroke-linejoin: round; stroke-linecap: butt}</style>
 </defs>
 <g id="figure_1">
  <g id="patch_1">
   <path d="M 0 416.970625 
L 416.836562 416.970625 
L 416.836562 0 
L 0 0 
z
" style="fill: #ffffff"/>
  </g>
  <g id="axes_1">
   <g id="patch_2">
    <path d="M 54.606563 236.806311 
L 409.636563 236.806311 
L 409.636563 7.2 
L 54.606563 7.2 
z
" style="fill: #ffffff"/>
   </g>
   <g id="FillBetweenPolyCollection_1">
    <defs>
     <path id="m7f3b498761" d="M 101.943896 -180.164314 
L 84.192396 -180.164314 
L 84.192396 -409.770625 
L 101.943896 -409.770625 
L 101.943896 -409.770625 
L 101.943896 -180.164314 
z
" style="stroke: #ffa500; stroke-opacity: 0.2"/>
    </defs>
    <g clip-path="url(#pec3c283eb3)">
     <use xlink:href="#m7f3b498761" x="0" y="416.970625" style="fill: #ffa500; fill-opacity: 0.2; stroke: #ffa500; stroke-opacity: 0.2"/>
    </g>
   </g>
   <g id="FillBetweenPolyCollection_2">
    <defs>
     <path id="m2aec0ae501" d="M 211.411479 -168.683998 
L 196.618562 -168.683998 
L 196.618562 -421.250941 
L 211.411479 -421.250941 
L 211.411479 -421.250941 
L 211.411479 -168.683998 
z
" style="stroke: #00ffff; stroke-opacity: 0.2"/>
    </defs>
    <g clip-path="url(#pec3c283eb3)">
     <use xlink:href="#m2aec0ae501" x="0" y="416.970625" style="fill: #00ffff; fill-opacity: 0.2; stroke: #00ffff; stroke-opacity: 0.2"/>
    </g>
   </g>
   <g id="matplotlib.axis_1"/>
   <g id="matplotlib.axis_2">
    <g id="ytick_1">
     <g id="line2d_1">
      <path d="M 54.606563 231.30293 
L 409.636563 231.30293 
" clip-path="url(#pec3c283eb3)" style="fill: none; stroke: #b0b0b0; stroke-width: 0.8; stroke-linecap: square"/>
     </g>
     <g id="line2d_2">
      <defs>
       <path id="mb6497222d2" d="M 0 0 
L -3.5 0 
" style="stroke: #000000; stroke-width: 0.8"/>
      </defs>
      <g>
       <use xlink:href="#mb6497222d2" x="54.606563" y="231.30293" style="stroke: #000000; stroke-width: 0.8"/>
      </g>
     </g>
     <g id="text_1">
      <!-- 0 -->
      <g transform="translate(39.82125 236.375742) scale(0.14 -0.14)">
       <defs>
        <path id="LiberationSans-30" d="M 3309 2203 
Q 3309 1100 2920 518 
Q 2531 -63 1772 -63 
Q 1013 -63 631 515 
Q 250 1094 250 2203 
Q 250 3338 620 3903 
Q 991 4469 1791 4469 
Q 2569 4469 2939 3897 
Q 3309 3325 3309 2203 
z
M 2738 2203 
Q 2738 3156 2517 3584 
Q 2297 4013 1791 4013 
Q 1272 4013 1045 3591 
Q 819 3169 819 2203 
Q 819 1266 1048 831 
Q 1278 397 1778 397 
Q 2275 397 2506 840 
Q 2738 1284 2738 2203 
z
" transform="scale(0.015625)"/>
       </defs>
       <use xlink:href="#LiberationSans-30"/>
      </g>
     </g>
    </g>
    <g id="ytick_2">
     <g id="line2d_3">
      <path d="M 54.606563 198.102871 
L 409.636563 198.102871 
" clip-path="url(#pec3c283eb3)" style="fill: none; stroke: #b0b0b0; stroke-width: 0.8; stroke-linecap: square"/>
     </g>
     <g id="line2d_4">
      <g>
       <use xlink:href="#mb6497222d2" x="54.606563" y="198.102871" style="stroke: #000000; stroke-width: 0.8"/>
      </g>
     </g>
     <g id="text_2">
      <!-- 20 -->
      <g transform="translate(32.035938 203.175683) scale(0.14 -0.14)">
       <defs>
        <path id="LiberationSans-32" d="M 322 0 
L 322 397 
Q 481 763 711 1042 
Q 941 1322 1194 1548 
Q 1447 1775 1695 1969 
Q 1944 2163 2144 2356 
Q 2344 2550 2467 2762 
Q 2591 2975 2591 3244 
Q 2591 3606 2378 3806 
Q 2166 4006 1788 4006 
Q 1428 4006 1195 3811 
Q 963 3616 922 3263 
L 347 3316 
Q 409 3844 795 4156 
Q 1181 4469 1788 4469 
Q 2453 4469 2811 4155 
Q 3169 3841 3169 3263 
Q 3169 3006 3051 2753 
Q 2934 2500 2703 2247 
Q 2472 1994 1819 1463 
Q 1459 1169 1246 933 
Q 1034 697 941 478 
L 3238 478 
L 3238 0 
L 322 0 
z
" transform="scale(0.015625)"/>
       </defs>
       <use xlink:href="#LiberationSans-32"/>
       <use xlink:href="#LiberationSans-30" transform="translate(55.615234 0)"/>
      </g>
     </g>
    </g>
    <g id="ytick_3">
     <g id="line2d_5">
      <path d="M 54.606563 164.902812 
L 409.636563 164.902812 
" clip-path="url(#pec3c283eb3)" style="fill: none; stroke: #b0b0b0; stroke-width: 0.8; stroke-linecap: square"/>
     </g>
     <g id="line2d_6">
      <g>
       <use xlink:href="#mb6497222d2" x="54.606563" y="164.902812" style="stroke: #000000; stroke-width: 0.8"/>
      </g>
     </g>
     <g id="text_3">
      <!-- 40 -->
      <g transform="translate(32.035938 169.975624) scale(0.14 -0.14)">
       <defs>
        <path id="LiberationSans-34" d="M 2753 997 
L 2753 0 
L 2222 0 
L 2222 997 
L 147 997 
L 147 1434 
L 2163 4403 
L 2753 4403 
L 2753 1441 
L 3372 1441 
L 3372 997 
L 2753 997 
z
M 2222 3769 
Q 2216 3750 2134 3603 
Q 2053 3456 2013 3397 
L 884 1734 
L 716 1503 
L 666 1441 
L 2222 1441 
L 2222 3769 
z
" transform="scale(0.015625)"/>
       </defs>
       <use xlink:href="#LiberationSans-34"/>
       <use xlink:href="#LiberationSans-30" transform="translate(55.615234 0)"/>
      </g>
     </g>
    </g>
    <g id="ytick_4">
     <g id="line2d_7">
      <path d="M 54.606563 131.702753 
L 409.636563 131.702753 
" clip-path="url(#pec3c283eb3)" style="fill: none; stroke: #b0b0b0; stroke-width: 0.8; stroke-linecap: square"/>
     </g>
     <g id="line2d_8">
      <g>
       <use xlink:href="#mb6497222d2" x="54.606563" y="131.702753" style="stroke: #000000; stroke-width: 0.8"/>
      </g>
     </g>
     <g id="text_4">
      <!-- 60 -->
      <g transform="translate(32.035938 136.775565) scale(0.14 -0.14)">
       <defs>
        <path id="LiberationSans-36" d="M 3278 1441 
Q 3278 744 2900 340 
Q 2522 -63 1856 -63 
Q 1113 -63 719 490 
Q 325 1044 325 2100 
Q 325 3244 734 3856 
Q 1144 4469 1900 4469 
Q 2897 4469 3156 3572 
L 2619 3475 
Q 2453 4013 1894 4013 
Q 1413 4013 1148 3564 
Q 884 3116 884 2266 
Q 1038 2550 1316 2698 
Q 1594 2847 1953 2847 
Q 2563 2847 2920 2465 
Q 3278 2084 3278 1441 
z
M 2706 1416 
Q 2706 1894 2472 2153 
Q 2238 2413 1819 2413 
Q 1425 2413 1183 2183 
Q 941 1953 941 1550 
Q 941 1041 1192 716 
Q 1444 391 1838 391 
Q 2244 391 2475 664 
Q 2706 938 2706 1416 
z
" transform="scale(0.015625)"/>
       </defs>
       <use xlink:href="#LiberationSans-36"/>
       <use xlink:href="#LiberationSans-30" transform="translate(55.615234 0)"/>
      </g>
     </g>
    </g>
    <g id="ytick_5">
     <g id="line2d_9">
      <path d="M 54.606563 98.502694 
L 409.636563 98.502694 
" clip-path="url(#pec3c283eb3)" style="fill: none; stroke: #b0b0b0; stroke-width: 0.8; stroke-linecap: square"/>
     </g>
     <g id="line2d_10">
      <g>
       <use xlink:href="#mb6497222d2" x="54.606563" y="98.502694" style="stroke: #000000; stroke-width: 0.8"/>
      </g>
     </g>
     <g id="text_5">
      <!-- 80 -->
      <g transform="translate(32.035938 103.575506) scale(0.14 -0.14)">
       <defs>
        <path id="LiberationSans-38" d="M 3281 1228 
Q 3281 619 2893 278 
Q 2506 -63 1781 -63 
Q 1075 -63 676 271 
Q 278 606 278 1222 
Q 278 1653 525 1947 
Q 772 2241 1156 2303 
L 1156 2316 
Q 797 2400 589 2681 
Q 381 2963 381 3341 
Q 381 3844 757 4156 
Q 1134 4469 1769 4469 
Q 2419 4469 2795 4162 
Q 3172 3856 3172 3334 
Q 3172 2956 2962 2675 
Q 2753 2394 2391 2322 
L 2391 2309 
Q 2813 2241 3047 1952 
Q 3281 1663 3281 1228 
z
M 2588 3303 
Q 2588 4050 1769 4050 
Q 1372 4050 1164 3862 
Q 956 3675 956 3303 
Q 956 2925 1170 2726 
Q 1384 2528 1775 2528 
Q 2172 2528 2380 2711 
Q 2588 2894 2588 3303 
z
M 2697 1281 
Q 2697 1691 2453 1898 
Q 2209 2106 1769 2106 
Q 1341 2106 1100 1882 
Q 859 1659 859 1269 
Q 859 359 1788 359 
Q 2247 359 2472 579 
Q 2697 800 2697 1281 
z
" transform="scale(0.015625)"/>
       </defs>
       <use xlink:href="#LiberationSans-38"/>
       <use xlink:href="#LiberationSans-30" transform="translate(55.615234 0)"/>
      </g>
     </g>
    </g>
    <g id="ytick_6">
     <g id="line2d_11">
      <path d="M 54.606563 65.302635 
L 409.636563 65.302635 
" clip-path="url(#pec3c283eb3)" style="fill: none; stroke: #b0b0b0; stroke-width: 0.8; stroke-linecap: square"/>
     </g>
     <g id="line2d_12">
      <g>
       <use xlink:href="#mb6497222d2" x="54.606563" y="65.302635" style="stroke: #000000; stroke-width: 0.8"/>
      </g>
     </g>
     <g id="text_6">
      <!-- 100 -->
      <g transform="translate(24.250625 70.375448) scale(0.14 -0.14)">
       <defs>
        <path id="LiberationSans-31" d="M 488 0 
L 488 478 
L 1609 478 
L 1609 3866 
L 616 3156 
L 616 3688 
L 1656 4403 
L 2175 4403 
L 2175 478 
L 3247 478 
L 3247 0 
L 488 0 
z
" transform="scale(0.015625)"/>
       </defs>
       <use xlink:href="#LiberationSans-31"/>
       <use xlink:href="#LiberationSans-30" transform="translate(55.615234 0)"/>
       <use xlink:href="#LiberationSans-30" transform="translate(111.230469 0)"/>
      </g>
     </g>
    </g>
    <g id="ytick_7">
     <g id="line2d_13">
      <path d="M 54.606563 32.102576 
L 409.636563 32.102576 
" clip-path="url(#pec3c283eb3)" style="fill: none; stroke: #b0b0b0; stroke-width: 0.8; stroke-linecap: square"/>
     </g>
     <g id="line2d_14">
      <g>
       <use xlink:href="#mb6497222d2" x="54.606563" y="32.102576" style="stroke: #000000; stroke-width: 0.8"/>
      </g>
     </g>
     <g id="text_7">
      <!-- 120 -->
      <g transform="translate(24.250625 37.175389) scale(0.14 -0.14)">
       <use xlink:href="#LiberationSans-31"/>
       <use xlink:href="#LiberationSans-32" transform="translate(55.615234 0)"/>
       <use xlink:href="#LiberationSans-30" transform="translate(111.230469 0)"/>
      </g>
     </g>
    </g>
    <g id="text_8">
     <!-- Pressure (mmHg) -->
     <g transform="translate(17.345625 177.227687) rotate(-90) scale(0.14 -0.14)">
      <defs>
       <path id="LiberationSans-50" d="M 3931 3078 
Q 3931 2453 3523 2084 
Q 3116 1716 2416 1716 
L 1122 1716 
L 1122 0 
L 525 0 
L 525 4403 
L 2378 4403 
Q 3119 4403 3525 4056 
Q 3931 3709 3931 3078 
z
M 3331 3072 
Q 3331 3925 2306 3925 
L 1122 3925 
L 1122 2188 
L 2331 2188 
Q 3331 2188 3331 3072 
z
" transform="scale(0.015625)"/>
       <path id="LiberationSans-72" d="M 444 0 
L 444 2594 
Q 444 2950 425 3381 
L 956 3381 
Q 981 2806 981 2691 
L 994 2691 
Q 1128 3125 1303 3284 
Q 1478 3444 1797 3444 
Q 1909 3444 2025 3413 
L 2025 2897 
Q 1913 2928 1725 2928 
Q 1375 2928 1190 2626 
Q 1006 2325 1006 1763 
L 1006 0 
L 444 0 
z
" transform="scale(0.015625)"/>
       <path id="LiberationSans-65" d="M 863 1572 
Q 863 991 1103 675 
Q 1344 359 1806 359 
Q 2172 359 2392 506 
Q 2613 653 2691 878 
L 3184 738 
Q 2881 -63 1806 -63 
Q 1056 -63 664 384 
Q 272 831 272 1713 
Q 272 2550 664 2997 
Q 1056 3444 1784 3444 
Q 3275 3444 3275 1647 
L 3275 1572 
L 863 1572 
z
M 2694 2003 
Q 2647 2538 2422 2783 
Q 2197 3028 1775 3028 
Q 1366 3028 1127 2754 
Q 888 2481 869 2003 
L 2694 2003 
z
" transform="scale(0.015625)"/>
       <path id="LiberationSans-73" d="M 2969 934 
Q 2969 456 2608 196 
Q 2247 -63 1597 -63 
Q 966 -63 623 145 
Q 281 353 178 794 
L 675 891 
Q 747 619 972 492 
Q 1197 366 1597 366 
Q 2025 366 2223 497 
Q 2422 628 2422 891 
Q 2422 1091 2284 1216 
Q 2147 1341 1841 1422 
L 1438 1528 
Q 953 1653 748 1773 
Q 544 1894 428 2066 
Q 313 2238 313 2488 
Q 313 2950 642 3192 
Q 972 3434 1603 3434 
Q 2163 3434 2492 3237 
Q 2822 3041 2909 2606 
L 2403 2544 
Q 2356 2769 2151 2889 
Q 1947 3009 1603 3009 
Q 1222 3009 1040 2893 
Q 859 2778 859 2544 
Q 859 2400 934 2306 
Q 1009 2213 1156 2147 
Q 1303 2081 1775 1966 
Q 2222 1853 2419 1758 
Q 2616 1663 2730 1547 
Q 2844 1431 2906 1279 
Q 2969 1128 2969 934 
z
" transform="scale(0.015625)"/>
       <path id="LiberationSans-75" d="M 981 3381 
L 981 1238 
Q 981 903 1047 718 
Q 1113 534 1256 453 
Q 1400 372 1678 372 
Q 2084 372 2318 650 
Q 2553 928 2553 1422 
L 2553 3381 
L 3116 3381 
L 3116 722 
Q 3116 131 3134 0 
L 2603 0 
Q 2600 16 2597 84 
Q 2594 153 2589 242 
Q 2584 331 2578 578 
L 2569 578 
Q 2375 228 2120 82 
Q 1866 -63 1488 -63 
Q 931 -63 673 214 
Q 416 491 416 1128 
L 416 3381 
L 981 3381 
z
" transform="scale(0.015625)"/>
       <path id="LiberationSans-20" transform="scale(0.015625)"/>
       <path id="LiberationSans-28" d="M 397 1663 
Q 397 2566 680 3284 
Q 963 4003 1550 4638 
L 2094 4638 
Q 1509 3988 1236 3256 
Q 963 2525 963 1656 
Q 963 791 1233 62 
Q 1503 -666 2094 -1325 
L 1550 -1325 
Q 959 -688 678 32 
Q 397 753 397 1650 
L 397 1663 
z
" transform="scale(0.015625)"/>
       <path id="LiberationSans-6d" d="M 2400 0 
L 2400 2144 
Q 2400 2634 2265 2821 
Q 2131 3009 1781 3009 
Q 1422 3009 1212 2734 
Q 1003 2459 1003 1959 
L 1003 0 
L 444 0 
L 444 2659 
Q 444 3250 425 3381 
L 956 3381 
Q 959 3366 962 3297 
Q 966 3228 970 3139 
Q 975 3050 981 2803 
L 991 2803 
Q 1172 3163 1406 3303 
Q 1641 3444 1978 3444 
Q 2363 3444 2586 3291 
Q 2809 3138 2897 2803 
L 2906 2803 
Q 3081 3144 3329 3294 
Q 3578 3444 3931 3444 
Q 4444 3444 4676 3166 
Q 4909 2888 4909 2253 
L 4909 0 
L 4353 0 
L 4353 2144 
Q 4353 2634 4218 2821 
Q 4084 3009 3734 3009 
Q 3366 3009 3161 2736 
Q 2956 2463 2956 1959 
L 2956 0 
L 2400 0 
z
" transform="scale(0.015625)"/>
       <path id="LiberationSans-48" d="M 3503 0 
L 3503 2041 
L 1122 2041 
L 1122 0 
L 525 0 
L 525 4403 
L 1122 4403 
L 1122 2541 
L 3503 2541 
L 3503 4403 
L 4100 4403 
L 4100 0 
L 3503 0 
z
" transform="scale(0.015625)"/>
       <path id="LiberationSans-67" d="M 1713 -1328 
Q 1159 -1328 831 -1111 
Q 503 -894 409 -494 
L 975 -413 
Q 1031 -647 1223 -773 
Q 1416 -900 1728 -900 
Q 2569 -900 2569 84 
L 2569 628 
L 2563 628 
Q 2403 303 2125 139 
Q 1847 -25 1475 -25 
Q 853 -25 561 387 
Q 269 800 269 1684 
Q 269 2581 583 3007 
Q 897 3434 1538 3434 
Q 1897 3434 2161 3270 
Q 2425 3106 2569 2803 
L 2575 2803 
Q 2575 2897 2587 3128 
Q 2600 3359 2613 3381 
L 3147 3381 
Q 3128 3213 3128 2681 
L 3128 97 
Q 3128 -1328 1713 -1328 
z
M 2569 1691 
Q 2569 2103 2456 2401 
Q 2344 2700 2139 2858 
Q 1934 3016 1675 3016 
Q 1244 3016 1047 2703 
Q 850 2391 850 1691 
Q 850 997 1034 694 
Q 1219 391 1666 391 
Q 1931 391 2137 547 
Q 2344 703 2456 995 
Q 2569 1288 2569 1691 
z
" transform="scale(0.015625)"/>
       <path id="LiberationSans-29" d="M 1734 1650 
Q 1734 747 1451 28 
Q 1169 -691 581 -1325 
L 38 -1325 
Q 625 -669 897 57 
Q 1169 784 1169 1656 
Q 1169 2528 895 3256 
Q 622 3984 38 4638 
L 581 4638 
Q 1172 4000 1453 3279 
Q 1734 2559 1734 1663 
L 1734 1650 
z
" transform="scale(0.015625)"/>
      </defs>
      <use xlink:href="#LiberationSans-50"/>
      <use xlink:href="#LiberationSans-72" transform="translate(66.699219 0)"/>
      <use xlink:href="#LiberationSans-65" transform="translate(100 0)"/>
      <use xlink:href="#LiberationSans-73" transform="translate(155.615234 0)"/>
      <use xlink:href="#LiberationSans-73" transform="translate(205.615234 0)"/>
      <use xlink:href="#LiberationSans-75" transform="translate(255.615234 0)"/>
      <use xlink:href="#LiberationSans-72" transform="translate(311.230469 0)"/>
      <use xlink:href="#LiberationSans-65" transform="translate(344.53125 0)"/>
      <use xlink:href="#LiberationSans-20" transform="translate(400.146484 0)"/>
      <use xlink:href="#LiberationSans-28" transform="translate(427.929688 0)"/>
      <use xlink:href="#LiberationSans-6d" transform="translate(461.230469 0)"/>
      <use xlink:href="#LiberationSans-6d" transform="translate(544.53125 0)"/>
      <use xlink:href="#LiberationSans-48" transform="translate(627.832031 0)"/>
      <use xlink:href="#LiberationSans-67" transform="translate(700.048828 0)"/>
      <use xlink:href="#LiberationSans-29" transform="translate(755.664062 0)"/>
     </g>
    </g>
   </g>
   <g id="line2d_15">
    <path d="M 54.606562 216.643183 
L 64.912739 213.625805 
L 72.020446 211.690851 
L 75.929686 210.565643 
L 77.351227 210.361427 
L 80.905081 210.118455 
L 81.615852 209.818084 
L 82.326623 209.331662 
L 83.037393 208.615403 
L 83.748164 207.625519 
L 84.458935 206.318223 
L 85.169706 204.653362 
L 86.235862 201.451745 
L 87.302018 197.382243 
L 88.368174 192.419373 
L 89.43433 186.537649 
L 90.855872 177.246414 
L 95.475882 144.140067 
L 96.542038 133.922276 
L 99.029736 107.586693 
L 100.095892 99.471796 
L 101.162048 93.154082 
L 102.228204 88.188545 
L 103.649746 82.935185 
L 107.2036 70.822529 
L 108.269756 66.179876 
L 110.402068 56.493361 
L 111.112839 54.123716 
L 111.82361 52.331997 
L 112.53438 51.007605 
L 113.245151 50.039845 
L 114.311307 49.014742 
L 116.799005 46.925024 
L 119.286703 44.442592 
L 125.328254 38.2426 
L 127.460567 36.473186 
L 130.659035 34.160012 
L 134.212889 31.520152 
L 143.097523 24.477241 
L 145.585221 22.951511 
L 148.072919 21.695249 
L 150.560617 20.713035 
L 152.692929 20.093602 
L 154.825241 19.687268 
L 156.957553 19.502554 
L 159.089866 19.547985 
L 161.222178 19.827773 
L 163.709876 20.41085 
L 166.552959 21.329827 
L 170.106813 22.717783 
L 172.59451 23.885957 
L 174.726823 25.116613 
L 176.859135 26.629151 
L 178.991447 28.430552 
L 181.12376 30.505889 
L 183.611457 33.260706 
L 186.099155 36.39215 
L 187.165311 38.007814 
L 188.231467 40.054902 
L 189.297624 42.74449 
L 190.36378 46.273296 
L 194.628404 62.766156 
L 195.339175 66.316965 
L 197.116102 76.678591 
L 197.826873 78.998208 
L 198.182258 80.773217 
L 198.537644 83.809139 
L 199.6038 98.681103 
L 199.959185 101.418176 
L 201.025341 106.415941 
L 201.380727 109.479668 
L 202.446883 123.584675 
L 202.802268 125.471394 
L 203.157654 126.602293 
L 203.513039 128.996394 
L 203.868424 134.672722 
L 204.579195 152.774553 
L 204.934581 157.040474 
L 205.645351 162.610917 
L 206.356122 171.92313 
L 207.422278 187.230671 
L 208.133049 193.515529 
L 208.488434 195.366525 
L 208.84382 196.603477 
L 209.554591 197.976196 
L 210.265361 199.098073 
L 210.976132 200.744683 
L 212.042288 203.908202 
L 214.174601 210.476204 
L 215.240757 213.081085 
L 216.306913 215.236975 
L 217.728454 217.548277 
L 219.149996 219.385883 
L 220.926923 221.299028 
L 223.059235 223.323221 
L 224.836162 224.71158 
L 226.257704 225.552562 
L 227.679245 226.097848 
L 229.100787 226.342941 
L 230.522328 226.34217 
L 232.299255 226.083879 
L 234.786953 225.433696 
L 237.985421 224.320147 
L 247.580827 220.759812 
L 250.42391 220.071571 
L 252.911608 219.690664 
L 255.399305 219.540936 
L 257.887003 219.633679 
L 261.085471 219.999481 
L 270.680877 221.238663 
L 274.234731 221.436312 
L 277.433199 221.389471 
L 281.342438 221.084165 
L 287.028605 220.379994 
L 293.780927 219.590589 
L 298.400937 219.309481 
L 303.376332 219.237935 
L 309.062498 219.381979 
L 322.567143 219.851838 
L 325.765612 219.63099 
L 330.030236 219.055631 
L 333.939475 218.591503 
L 342.113339 217.833575 
L 344.601037 217.285928 
L 348.154891 216.245792 
L 353.841057 214.554336 
L 363.791848 211.899705 
L 368.056472 210.445094 
L 369.122629 210.309262 
L 370.188785 210.373735 
L 373.387253 210.951816 
L 374.098024 210.795225 
L 374.808795 210.407619 
L 375.519566 209.730217 
L 376.230336 208.704238 
L 376.941107 207.273078 
L 377.651878 205.415391 
L 378.718034 201.845206 
L 379.78419 197.358809 
L 380.850346 191.983394 
L 382.271888 183.480259 
L 384.048815 171.062639 
L 388.313439 139.644682 
L 389.379596 128.362762 
L 390.801137 112.786777 
L 391.867293 103.515814 
L 392.933449 96.3053 
L 393.999606 90.676289 
L 395.065762 86.199484 
L 396.487303 81.286407 
L 398.975001 72.98701 
L 400.041157 68.738031 
L 403.239626 54.756918 
L 403.950396 52.806396 
L 404.661167 51.355813 
L 405.371938 50.294476 
L 406.438094 49.19016 
L 409.636563 46.450441 
L 409.636563 46.450441 
" clip-path="url(#pec3c283eb3)" style="fill: none; stroke: #000000; stroke-width: 1.5; stroke-linecap: square"/>
   </g>
   <g id="line2d_16">
    <path d="M 54.606562 209.568193 
L 58.871187 211.319109 
L 64.201968 213.185799 
L 70.243519 215.382344 
L 75.5743 217.270404 
L 78.417383 218.080245 
L 80.549696 218.496022 
L 82.682008 218.672698 
L 84.458935 218.58867 
L 86.235862 218.252811 
L 87.657403 217.776604 
L 89.078945 217.094304 
L 90.500486 216.188571 
L 92.277413 214.796279 
L 97.96358 210.086238 
L 99.385121 209.253311 
L 100.806663 208.694135 
L 102.228204 208.40273 
L 103.649746 208.360088 
L 105.071287 208.546629 
L 106.848214 209.053377 
L 108.980526 209.954409 
L 112.53438 211.797075 
L 118.575932 215.132825 
L 126.039025 219.469878 
L 128.171337 220.343074 
L 130.30365 220.924481 
L 132.435962 221.255248 
L 134.92366 221.389223 
L 137.766743 221.303681 
L 141.320597 220.954889 
L 145.940607 220.239535 
L 153.759085 218.762264 
L 161.577564 217.065708 
L 168.685271 215.302431 
L 175.437594 213.399625 
L 183.966843 210.991846 
L 188.231467 210.024975 
L 191.785321 209.444156 
L 195.339175 209.095365 
L 201.025341 208.801041 
L 207.422278 208.413223 
L 211.686903 208.18632 
L 214.174601 208.24661 
L 216.306913 208.490594 
L 218.439225 208.967742 
L 220.571537 209.715878 
L 222.70385 210.704523 
L 225.191547 212.095147 
L 228.745401 214.373884 
L 237.630036 220.222396 
L 240.473119 221.759471 
L 242.960817 222.863912 
L 245.448514 223.704799 
L 247.580827 224.187534 
L 249.713139 224.433808 
L 251.845451 224.447626 
L 253.977764 224.235877 
L 256.110076 223.808497 
L 258.953159 222.995047 
L 266.060867 220.844035 
L 269.614721 220.067841 
L 272.813189 219.604247 
L 276.011658 219.382616 
L 279.210126 219.394209 
L 282.408595 219.627635 
L 291.293229 220.532575 
L 293.780927 220.365918 
L 297.334781 219.843803 
L 301.954791 219.162412 
L 305.153259 218.945204 
L 313.682508 218.499854 
L 316.880977 218.04085 
L 319.72406 217.423679 
L 322.567143 216.575275 
L 325.054841 215.616705 
L 327.542538 214.432562 
L 330.030236 213.001613 
L 336.427173 209.085641 
L 338.2041 208.332121 
L 339.981027 207.844314 
L 341.757954 207.628075 
L 343.534881 207.687701 
L 345.311808 208.024864 
L 347.088735 208.593916 
L 349.931818 209.769799 
L 354.196442 211.510576 
L 359.527223 213.368039 
L 367.345702 216.104669 
L 374.808795 218.783654 
L 376.585722 219.103988 
L 378.007263 219.137672 
L 379.428805 218.919634 
L 380.850346 218.432331 
L 382.271888 217.71728 
L 384.048815 216.5761 
L 386.536512 214.684189 
L 391.511908 210.82306 
L 393.288835 209.726918 
L 394.710376 209.059903 
L 396.131918 208.612779 
L 397.553459 208.391652 
L 398.975001 208.401077 
L 400.396542 208.640224 
L 402.173469 209.209631 
L 404.305782 210.17137 
L 408.925792 212.623832 
L 409.636563 213.00674 
L 409.636563 213.00674 
" clip-path="url(#pec3c283eb3)" style="fill: none; stroke: #0000ff; stroke-width: 1.5; stroke-linecap: square"/>
   </g>
   <g id="line2d_17">
    <path d="M 54.606562 85.824785 
L 61.003499 87.112086 
L 67.400436 88.167275 
L 73.441988 88.934505 
L 80.549696 89.583113 
L 84.81432 90.101354 
L 88.012789 90.726555 
L 92.277413 91.573618 
L 94.409726 91.75075 
L 96.186653 91.665528 
L 101.517433 91.096413 
L 102.938975 91.286809 
L 104.360516 91.509534 
L 105.071287 91.475997 
L 105.782058 91.258611 
L 106.492829 90.791939 
L 107.2036 90.010545 
L 107.91437 88.848993 
L 108.625141 87.241844 
L 109.335912 85.123664 
L 110.402068 80.973663 
L 112.53438 71.068484 
L 114.311307 63.323236 
L 115.377463 59.472188 
L 116.44362 56.461061 
L 117.509776 54.209846 
L 118.575932 52.569725 
L 119.642088 51.391879 
L 120.708244 50.527664 
L 122.485171 49.443127 
L 124.617483 48.171507 
L 125.68364 47.32376 
L 126.749796 46.206641 
L 127.815952 44.74072 
L 129.237493 42.326802 
L 131.725191 37.486582 
L 133.857503 33.492366 
L 135.63443 30.581855 
L 137.411357 28.044367 
L 139.188284 25.862811 
L 140.965211 24.019487 
L 142.742138 22.487195 
L 144.519065 21.231218 
L 146.295992 20.216636 
L 148.428304 19.268635 
L 150.560617 18.56635 
L 152.692929 18.080067 
L 155.180627 17.750627 
L 157.668324 17.637574 
L 160.511407 17.727249 
L 163.35449 18.048506 
L 166.197574 18.618418 
L 168.685271 19.33454 
L 171.172969 20.263702 
L 173.660667 21.407306 
L 176.50375 22.975932 
L 178.991447 24.585996 
L 181.12376 26.223546 
L 182.900687 27.851653 
L 184.677614 29.778023 
L 187.165311 32.859288 
L 190.36378 37.097429 
L 191.07455 38.358415 
L 191.785321 40.004632 
L 192.496092 42.179363 
L 193.206863 45.019282 
L 194.273019 50.374385 
L 195.69456 57.630005 
L 196.405331 59.67537 
L 196.760717 60.154622 
L 197.116102 60.327774 
L 197.471487 60.238095 
L 197.826873 59.928854 
L 198.537644 58.824768 
L 200.669956 54.666896 
L 201.736112 53.331276 
L 202.802268 52.46127 
L 203.868424 51.915687 
L 204.934581 51.576781 
L 206.356122 51.386964 
L 207.777664 51.456599 
L 209.199205 51.742742 
L 210.620747 52.227744 
L 212.042288 52.924942 
L 213.46383 53.849566 
L 215.240757 55.322018 
L 218.794611 58.733434 
L 220.926923 60.614845 
L 222.70385 61.921505 
L 224.125391 62.74435 
L 225.546933 63.334099 
L 226.968474 63.706054 
L 228.745401 63.932689 
L 230.877714 63.971168 
L 242.960817 63.778478 
L 247.580827 63.993805 
L 251.845451 64.406295 
L 256.110076 65.049715 
L 260.019315 65.862634 
L 264.28394 66.979877 
L 269.970106 68.717757 
L 283.474751 72.954465 
L 288.094761 74.111892 
L 292.359385 74.941799 
L 298.400937 75.858071 
L 309.062498 77.43913 
L 315.814821 78.702191 
L 322.567143 80.196424 
L 331.807163 82.516048 
L 342.468725 85.144789 
L 348.510276 86.403861 
L 355.262599 87.568562 
L 363.436462 88.736483 
L 375.519566 90.433216 
L 382.271888 91.641662 
L 384.759586 91.79773 
L 386.891898 91.675217 
L 392.222679 91.077146 
L 393.64422 91.241445 
L 395.421147 91.523268 
L 396.131918 91.466017 
L 396.842689 91.213959 
L 397.553459 90.701977 
L 398.26423 89.864955 
L 398.975001 88.637775 
L 399.685772 86.955322 
L 400.396542 84.752567 
L 401.462699 80.502057 
L 406.082709 60.294025 
L 407.148865 57.086229 
L 408.215021 54.671989 
L 409.281177 52.90341 
L 409.636563 52.431638 
L 409.636563 52.431638 
" clip-path="url(#pec3c283eb3)" style="fill: none; stroke: #ff0000; stroke-width: 1.5; stroke-linecap: square"/>
   </g>
   <g id="patch_3">
    <path d="M 54.606563 236.806311 
L 54.606563 7.2 
" style="fill: none; stroke: #000000; stroke-width: 0.8; stroke-linejoin: miter; stroke-linecap: square"/>
   </g>
  </g>
  <g id="axes_2">
   <g id="patch_4">
    <path d="M 54.606563 392.72 
L 409.636563 392.72 
L 409.636563 254.956213 
L 54.606563 254.956213 
z
" style="fill: #ffffff"/>
   </g>
   <g id="FillBetweenPolyCollection_3">
    <defs>
     <path id="mbd4da63723" d="M 101.943896 26.697393 
L 84.192396 26.697393 
L 84.192396 -275.549286 
L 101.943896 -275.549286 
L 101.943896 -275.549286 
L 101.943896 26.697393 
z
" style="stroke: #ffa500; stroke-opacity: 0.2"/>
    </defs>
    <g clip-path="url(#pf5934bb7fa)">
     <use xlink:href="#mbd4da63723" x="0" y="416.970625" style="fill: #ffa500; fill-opacity: 0.2; stroke: #ffa500; stroke-opacity: 0.2"/>
    </g>
   </g>
   <g id="FillBetweenPolyCollection_4">
    <defs>
     <path id="mb6427202ae" d="M 211.411479 -29.412679 
L 196.618562 -29.412679 
L 196.618562 -162.014412 
L 211.411479 -162.014412 
L 211.411479 -162.014412 
L 211.411479 -29.412679 
z
" style="stroke: #00ffff; stroke-opacity: 0.2"/>
    </defs>
    <g clip-path="url(#pf5934bb7fa)">
     <use xlink:href="#mb6427202ae" x="0" y="416.970625" style="fill: #00ffff; fill-opacity: 0.2; stroke: #00ffff; stroke-opacity: 0.2"/>
    </g>
   </g>
   <g id="matplotlib.axis_3">
    <g id="text_9">
     <!-- Normalized Time (0-1) -->
     <g transform="translate(162.887188 406.865625) scale(0.14 -0.14)">
      <defs>
       <path id="LiberationSans-4e" d="M 3381 0 
L 1025 3750 
L 1041 3447 
L 1056 2925 
L 1056 0 
L 525 0 
L 525 4403 
L 1219 4403 
L 3600 628 
Q 3563 1241 3563 1516 
L 3563 4403 
L 4100 4403 
L 4100 0 
L 3381 0 
z
" transform="scale(0.015625)"/>
       <path id="LiberationSans-6f" d="M 3291 1694 
Q 3291 806 2900 371 
Q 2509 -63 1766 -63 
Q 1025 -63 647 389 
Q 269 841 269 1694 
Q 269 3444 1784 3444 
Q 2559 3444 2925 3017 
Q 3291 2591 3291 1694 
z
M 2700 1694 
Q 2700 2394 2492 2711 
Q 2284 3028 1794 3028 
Q 1300 3028 1079 2704 
Q 859 2381 859 1694 
Q 859 1025 1076 689 
Q 1294 353 1759 353 
Q 2266 353 2483 678 
Q 2700 1003 2700 1694 
z
" transform="scale(0.015625)"/>
       <path id="LiberationSans-61" d="M 1294 -63 
Q 784 -63 528 206 
Q 272 475 272 944 
Q 272 1469 617 1750 
Q 963 2031 1731 2050 
L 2491 2063 
L 2491 2247 
Q 2491 2659 2316 2837 
Q 2141 3016 1766 3016 
Q 1388 3016 1216 2887 
Q 1044 2759 1009 2478 
L 422 2531 
Q 566 3444 1778 3444 
Q 2416 3444 2737 3151 
Q 3059 2859 3059 2306 
L 3059 850 
Q 3059 600 3125 473 
Q 3191 347 3375 347 
Q 3456 347 3559 369 
L 3559 19 
Q 3347 -31 3125 -31 
Q 2813 -31 2670 133 
Q 2528 297 2509 647 
L 2491 647 
Q 2275 259 1989 98 
Q 1703 -63 1294 -63 
z
M 1422 359 
Q 1731 359 1972 500 
Q 2213 641 2352 886 
Q 2491 1131 2491 1391 
L 2491 1669 
L 1875 1656 
Q 1478 1650 1273 1575 
Q 1069 1500 959 1344 
Q 850 1188 850 934 
Q 850 659 998 509 
Q 1147 359 1422 359 
z
" transform="scale(0.015625)"/>
       <path id="LiberationSans-6c" d="M 431 0 
L 431 4638 
L 994 4638 
L 994 0 
L 431 0 
z
" transform="scale(0.015625)"/>
       <path id="LiberationSans-69" d="M 428 4100 
L 428 4638 
L 991 4638 
L 991 4100 
L 428 4100 
z
M 428 0 
L 428 3381 
L 991 3381 
L 991 0 
L 428 0 
z
" transform="scale(0.015625)"/>
       <path id="LiberationSans-7a" d="M 259 0 
L 259 428 
L 2150 2947 
L 366 2947 
L 366 3381 
L 2816 3381 
L 2816 2953 
L 922 434 
L 2881 434 
L 2881 0 
L 259 0 
z
" transform="scale(0.015625)"/>
       <path id="LiberationSans-64" d="M 2566 544 
Q 2409 219 2151 78 
Q 1894 -63 1513 -63 
Q 872 -63 570 368 
Q 269 800 269 1675 
Q 269 3444 1513 3444 
Q 1897 3444 2153 3303 
Q 2409 3163 2566 2856 
L 2572 2856 
L 2566 3234 
L 2566 4638 
L 3128 4638 
L 3128 697 
Q 3128 169 3147 0 
L 2609 0 
Q 2600 50 2589 231 
Q 2578 413 2578 544 
L 2566 544 
z
M 859 1694 
Q 859 984 1046 678 
Q 1234 372 1656 372 
Q 2134 372 2350 703 
Q 2566 1034 2566 1731 
Q 2566 2403 2350 2715 
Q 2134 3028 1663 3028 
Q 1238 3028 1048 2714 
Q 859 2400 859 1694 
z
" transform="scale(0.015625)"/>
       <path id="LiberationSans-54" d="M 2250 3916 
L 2250 0 
L 1656 0 
L 1656 3916 
L 144 3916 
L 144 4403 
L 3763 4403 
L 3763 3916 
L 2250 3916 
z
" transform="scale(0.015625)"/>
       <path id="LiberationSans-2d" d="M 284 1450 
L 284 1950 
L 1847 1950 
L 1847 1450 
L 284 1450 
z
" transform="scale(0.015625)"/>
      </defs>
      <use xlink:href="#LiberationSans-4e"/>
      <use xlink:href="#LiberationSans-6f" transform="translate(72.216797 0)"/>
      <use xlink:href="#LiberationSans-72" transform="translate(127.832031 0)"/>
      <use xlink:href="#LiberationSans-6d" transform="translate(161.132812 0)"/>
      <use xlink:href="#LiberationSans-61" transform="translate(244.433594 0)"/>
      <use xlink:href="#LiberationSans-6c" transform="translate(300.048828 0)"/>
      <use xlink:href="#LiberationSans-69" transform="translate(322.265625 0)"/>
      <use xlink:href="#LiberationSans-7a" transform="translate(344.482422 0)"/>
      <use xlink:href="#LiberationSans-65" transform="translate(394.482422 0)"/>
      <use xlink:href="#LiberationSans-64" transform="translate(450.097656 0)"/>
      <use xlink:href="#LiberationSans-20" transform="translate(505.712891 0)"/>
      <use xlink:href="#LiberationSans-54" transform="translate(531.746094 0)"/>
      <use xlink:href="#LiberationSans-69" transform="translate(589.080078 0)"/>
      <use xlink:href="#LiberationSans-6d" transform="translate(611.296875 0)"/>
      <use xlink:href="#LiberationSans-65" transform="translate(694.597656 0)"/>
      <use xlink:href="#LiberationSans-20" transform="translate(750.212891 0)"/>
      <use xlink:href="#LiberationSans-28" transform="translate(777.996094 0)"/>
      <use xlink:href="#LiberationSans-30" transform="translate(811.296875 0)"/>
      <use xlink:href="#LiberationSans-2d" transform="translate(866.912109 0)"/>
      <use xlink:href="#LiberationSans-31" transform="translate(900.212891 0)"/>
      <use xlink:href="#LiberationSans-29" transform="translate(955.828125 0)"/>
     </g>
    </g>
   </g>
   <g id="matplotlib.axis_4">
    <g id="ytick_8">
     <g id="line2d_18">
      <path d="M 54.606563 392.72 
L 409.636563 392.72 
" clip-path="url(#pf5934bb7fa)" style="fill: none; stroke: #b0b0b0; stroke-width: 0.8; stroke-linecap: square"/>
     </g>
     <g id="line2d_19">
      <g>
       <use xlink:href="#mb6497222d2" x="54.606563" y="392.72" style="stroke: #000000; stroke-width: 0.8"/>
      </g>
     </g>
     <g id="text_10">
      <!-- 20 -->
      <g transform="translate(32.035938 397.792812) scale(0.14 -0.14)">
       <use xlink:href="#LiberationSans-32"/>
       <use xlink:href="#LiberationSans-30" transform="translate(55.615234 0)"/>
      </g>
     </g>
    </g>
    <g id="ytick_9">
     <g id="line2d_20">
      <path d="M 54.606563 349.016465 
L 409.636563 349.016465 
" clip-path="url(#pf5934bb7fa)" style="fill: none; stroke: #b0b0b0; stroke-width: 0.8; stroke-linecap: square"/>
     </g>
     <g id="line2d_21">
      <g>
       <use xlink:href="#mb6497222d2" x="54.606563" y="349.016465" style="stroke: #000000; stroke-width: 0.8"/>
      </g>
     </g>
     <g id="text_11">
      <!-- 40 -->
      <g transform="translate(32.035938 354.089277) scale(0.14 -0.14)">
       <use xlink:href="#LiberationSans-34"/>
       <use xlink:href="#LiberationSans-30" transform="translate(55.615234 0)"/>
      </g>
     </g>
    </g>
    <g id="ytick_10">
     <g id="line2d_22">
      <path d="M 54.606563 305.31293 
L 409.636563 305.31293 
" clip-path="url(#pf5934bb7fa)" style="fill: none; stroke: #b0b0b0; stroke-width: 0.8; stroke-linecap: square"/>
     </g>
     <g id="line2d_23">
      <g>
       <use xlink:href="#mb6497222d2" x="54.606563" y="305.31293" style="stroke: #000000; stroke-width: 0.8"/>
      </g>
     </g>
     <g id="text_12">
      <!-- 60 -->
      <g transform="translate(32.035938 310.385742) scale(0.14 -0.14)">
       <use xlink:href="#LiberationSans-36"/>
       <use xlink:href="#LiberationSans-30" transform="translate(55.615234 0)"/>
      </g>
     </g>
    </g>
    <g id="ytick_11">
     <g id="line2d_24">
      <path d="M 54.606563 261.609394 
L 409.636563 261.609394 
" clip-path="url(#pf5934bb7fa)" style="fill: none; stroke: #b0b0b0; stroke-width: 0.8; stroke-linecap: square"/>
     </g>
     <g id="line2d_25">
      <g>
       <use xlink:href="#mb6497222d2" x="54.606563" y="261.609394" style="stroke: #000000; stroke-width: 0.8"/>
      </g>
     </g>
     <g id="text_13">
      <!-- 80 -->
      <g transform="translate(32.035938 266.682207) scale(0.14 -0.14)">
       <use xlink:href="#LiberationSans-38"/>
       <use xlink:href="#LiberationSans-30" transform="translate(55.615234 0)"/>
      </g>
     </g>
    </g>
    <g id="text_14">
     <!-- LV Volume -->
     <g transform="translate(25.130938 357.1767) rotate(-90) scale(0.14 -0.14)">
      <defs>
       <path id="LiberationSans-4c" d="M 525 0 
L 525 4403 
L 1122 4403 
L 1122 488 
L 3347 488 
L 3347 0 
L 525 0 
z
" transform="scale(0.015625)"/>
       <path id="LiberationSans-56" d="M 2444 0 
L 1825 0 
L 28 4403 
L 656 4403 
L 1875 1303 
L 2138 525 
L 2400 1303 
L 3613 4403 
L 4241 4403 
L 2444 0 
z
" transform="scale(0.015625)"/>
      </defs>
      <use xlink:href="#LiberationSans-4c"/>
      <use xlink:href="#LiberationSans-56" transform="translate(48.240234 0)"/>
      <use xlink:href="#LiberationSans-20" transform="translate(114.939453 0)"/>
      <use xlink:href="#LiberationSans-56" transform="translate(142.722656 0)"/>
      <use xlink:href="#LiberationSans-6f" transform="translate(203.921875 0)"/>
      <use xlink:href="#LiberationSans-6c" transform="translate(259.537109 0)"/>
      <use xlink:href="#LiberationSans-75" transform="translate(281.753906 0)"/>
      <use xlink:href="#LiberationSans-6d" transform="translate(337.369141 0)"/>
      <use xlink:href="#LiberationSans-65" transform="translate(420.669922 0)"/>
     </g>
    </g>
   </g>
   <g id="line2d_26">
    <path d="M 54.606562 277.129387 
L 59.581958 273.229242 
L 62.425041 271.263828 
L 64.912739 269.820767 
L 67.045051 268.85127 
L 69.532749 267.987036 
L 74.863529 266.218196 
L 76.995842 265.213218 
L 83.748164 261.730762 
L 85.525091 261.198564 
L 86.946633 261.006539 
L 88.723559 261.024231 
L 90.855872 261.304802 
L 97.252809 262.356662 
L 99.029736 262.609208 
L 100.095892 262.970017 
L 101.162048 263.602131 
L 102.228204 264.599109 
L 103.29436 266.054506 
L 104.360516 268.056035 
L 105.426673 270.563759 
L 107.2036 275.420323 
L 112.178995 289.945529 
L 115.377463 300.063998 
L 117.509776 306.598896 
L 118.931317 310.406854 
L 120.352859 313.661002 
L 122.129786 317.171592 
L 131.725191 334.585424 
L 134.212889 338.631582 
L 137.055972 342.75642 
L 141.320597 348.456893 
L 144.87445 352.88437 
L 147.717533 356.085505 
L 150.560617 358.940933 
L 153.4037 361.50092 
L 156.602168 364.093503 
L 160.156022 366.666791 
L 163.709876 368.954309 
L 167.619115 371.185972 
L 171.528354 373.164711 
L 176.148364 375.23971 
L 181.479145 377.366375 
L 185.74377 378.837261 
L 189.297624 379.831284 
L 192.851477 380.573916 
L 196.405331 381.086397 
L 200.314571 381.421467 
L 204.22381 381.529457 
L 207.422278 381.401795 
L 210.265361 381.085271 
L 213.108444 380.542638 
L 215.240757 379.93362 
L 217.017684 379.233551 
L 218.794611 378.310136 
L 220.571537 377.118094 
L 222.348464 375.628243 
L 224.480777 373.516184 
L 227.32386 370.349307 
L 233.010026 363.616467 
L 236.208494 359.467143 
L 238.696192 355.880581 
L 242.250046 350.260723 
L 246.159285 344.185854 
L 249.713139 339.211596 
L 253.977764 333.230957 
L 256.820847 328.80147 
L 260.730086 322.67533 
L 262.507013 320.253192 
L 264.28394 318.168516 
L 266.416252 316.010835 
L 269.259335 313.490368 
L 276.722428 307.313855 
L 279.920897 304.949642 
L 282.76398 303.136512 
L 285.251678 301.801368 
L 288.094761 300.535402 
L 290.937844 299.514256 
L 294.136312 298.614794 
L 297.690166 297.857173 
L 302.310176 297.119729 
L 307.285572 296.519822 
L 310.128655 296.38323 
L 312.616352 296.479139 
L 317.947133 296.847781 
L 319.72406 296.707207 
L 321.145602 296.397472 
L 322.567143 295.863063 
L 323.988685 295.069751 
L 325.765612 293.753503 
L 327.897924 291.809929 
L 330.741007 288.841484 
L 335.716402 283.576649 
L 338.914871 280.59071 
L 342.468725 277.581908 
L 347.088735 273.979167 
L 350.287203 271.729456 
L 353.130286 269.991901 
L 355.617984 268.731789 
L 358.105682 267.714645 
L 361.30415 266.668447 
L 365.92416 265.431447 
L 371.610326 264.118497 
L 376.585722 263.179129 
L 380.850346 262.586225 
L 384.759586 262.267799 
L 386.536512 262.271693 
L 387.602669 262.454664 
L 388.668825 262.867938 
L 389.734981 263.589102 
L 390.801137 264.695743 
L 391.867293 266.265448 
L 392.933449 268.365518 
L 394.354991 271.862137 
L 396.842689 278.858181 
L 400.751928 290.358209 
L 404.661167 302.740106 
L 406.438094 307.981297 
L 407.859636 311.588043 
L 409.636563 315.394106 
L 409.636563 315.394106 
" clip-path="url(#pf5934bb7fa)" style="fill: none; stroke: #000000; stroke-width: 1.5; stroke-linecap: square"/>
   </g>
   <g id="patch_5">
    <path d="M 54.606563 392.72 
L 54.606563 254.956213 
" style="fill: none; stroke: #000000; stroke-width: 0.8; stroke-linejoin: miter; stroke-linecap: square"/>
   </g>
  </g>
 </g>
 <defs>
  <clipPath id="pec3c283eb3">
   <rect x="54.606563" y="7.2" width="355.03" height="229.606311"/>
  </clipPath>
  <clipPath id="pf5934bb7fa">
   <rect x="54.606563" y="254.956213" width="355.03" height="137.763787"/>
  </clipPath>
 </defs>
</svg>
